<svg version="1.0" xmlns="http://www.w3.org/2000/svg"
 width="auto" height="auto" viewBox="0 0 500.000000 500.000000"
 preserveAspectRatio="xMidYMid meet">

<g transform="translate(10.000000,390.000000) scale(0.105000,-0.105000)"
fill="#000000" stroke="none">
<path d="M518 3472 l-70 -71 4 -74 c3 -65 6 -78 28 -95 23 -18 25 -28 26 -101
1 -74 3 -83 28 -106 22 -20 26 -33 26 -76 0 -42 5 -56 25 -75 l25 -23 0 -407
0 -407 25 -23 c15 -13 25 -34 25 -50 0 -16 10 -36 25 -50 14 -13 25 -34 25
-49 0 -34 61 -95 94 -95 36 0 106 -69 106 -104 0 -21 17 -44 75 -100 62 -60
75 -78 75 -104 0 -23 7 -36 25 -48 18 -12 25 -25 25 -50 0 -25 7 -38 25 -50
18 -11 25 -25 25 -47 0 -24 14 -44 75 -103 l75 -73 0 -132 c0 -128 -1 -132
-25 -155 -14 -13 -25 -34 -25 -49 0 -35 -110 -145 -145 -145 -15 0 -36 -11
-49 -25 -14 -15 -34 -25 -50 -25 -16 0 -37 -11 -51 -26 -21 -22 -35 -27 -81
-29 -45 -1 -60 -6 -73 -23 -9 -12 -32 -25 -51 -28 -19 -4 -45 -17 -58 -30 -13
-14 -35 -24 -50 -24 -19 0 -41 -14 -75 -50 -36 -37 -56 -50 -77 -50 -31 0 -50
-22 -50 -58 0 -11 -23 -42 -50 -70 -56 -57 -62 -82 -25 -116 14 -13 25 -31 25
-40 0 -15 142 -16 1820 -16 l1820 0 0 38 c0 28 -7 45 -25 62 -20 19 -25 33
-25 76 l0 52 -125 124 c-95 95 -125 131 -125 150 0 19 -20 46 -75 100 -57 55
-75 80 -75 101 0 16 -10 35 -24 48 -14 12 -26 37 -30 59 -4 24 -14 43 -25 50
-26 13 -34 41 -22 74 15 37 73 37 97 1 16 -24 20 -25 123 -25 102 0 109 1 131
25 14 14 35 25 50 25 15 0 36 11 50 25 14 14 35 25 50 25 15 0 36 11 50 25 14
14 35 25 50 25 15 0 36 11 50 25 14 14 35 25 50 25 15 0 36 11 50 25 14 15 35
25 52 25 18 0 36 9 50 25 13 15 32 25 48 25 25 0 100 57 100 77 0 20 -67 73
-92 73 -19 0 -41 15 -75 50 -26 27 -52 50 -57 50 -5 0 -19 -11 -32 -25 -21
-23 -29 -25 -119 -25 -91 0 -97 1 -121 27 -33 35 -75 35 -108 0 -23 -24 -32
-27 -95 -27 -61 0 -73 3 -101 27 -25 20 -41 26 -76 25 -37 -2 -50 3 -83 33
-24 22 -42 49 -46 68 -9 43 -72 107 -105 107 -33 0 -50 17 -50 50 0 35 -115
150 -151 150 -32 0 -49 17 -49 50 0 33 -17 50 -50 50 -18 0 -41 16 -75 50 -34
35 -57 50 -75 50 -15 0 -37 11 -50 25 -19 20 -33 25 -75 25 -42 0 -56 5 -75
25 -23 25 -26 25 -177 25 -151 0 -154 0 -177 25 -19 20 -33 25 -75 25 -43 0
-56 5 -75 25 -21 22 -31 25 -100 25 l-77 0 -125 125 c-92 93 -133 127 -157
132 -23 4 -62 36 -139 112 -59 58 -108 111 -108 117 0 14 23 24 54 24 27 0 96
72 96 101 0 11 -11 30 -25 43 -14 13 -25 33 -25 45 0 41 -18 61 -54 61 -25 0
-38 7 -50 25 -12 18 -25 25 -48 25 -25 0 -42 10 -79 50 -33 36 -54 50 -73 50
-16 0 -37 10 -50 25 -14 15 -34 25 -50 25 -21 0 -54 28 -154 127 l-127 128
-73 -3 c-67 -3 -74 -1 -100 25 -24 24 -36 28 -100 31 l-73 4 -71 -70z m1753
-2257 c4 -24 15 -45 28 -53 18 -13 21 -24 21 -94 l0 -79 73 -73 c52 -51 76
-83 80 -106 10 -46 161 -199 198 -200 34 0 159 -122 159 -155 0 -13 -17 -41
-40 -64 -40 -41 -41 -41 -113 -41 -65 0 -76 3 -96 24 -17 18 -36 25 -81 28
-45 3 -63 9 -77 26 -16 20 -29 23 -100 25 -73 2 -85 5 -98 24 -9 13 -32 25
-53 29 -24 5 -48 20 -69 43 l-33 35 0 126 c0 122 1 127 25 148 24 21 25 27 25
127 0 100 -1 106 -25 127 -36 31 -32 65 12 110 37 38 40 39 98 36 l60 -3 6
-40z m-539 -42 l38 -37 0 -176 0 -176 -65 -64 -64 -64 -35 35 -36 34 0 159 c0
157 0 159 25 182 14 13 25 34 25 49 0 21 53 94 70 95 2 0 21 -17 42 -37z
m1365 -355 c20 -20 33 -42 33 -58 0 -19 30 -55 125 -150 l125 -125 0 -80 c0
-50 -5 -86 -12 -93 -15 -15 -191 -16 -219 -2 -15 9 -19 22 -19 69 0 49 -4 61
-25 79 -21 18 -25 31 -25 75 0 44 -4 57 -25 75 -24 21 -25 27 -25 125 0 132 8
142 67 85z"/>
</g>
</svg>